<svg id="Layer_1" data-name="Layer 1" xmlns="http://www.w3.org/2000/svg" viewBox="0 0 434.1 434.12"><defs><style>.cls-1{fill:#fbda04;}.cls-2{fill:#02441e;}.cls-3{fill:#fdfdfc;}.cls-4{fill:#a03018;}.cls-5{fill:#fafaf8;}.cls-6{fill:#957a39;}.cls-7{fill:#434243;}.cls-8{fill:#77787b;}.cls-9{fill:#43a845;}.cls-10{fill:#645711;}.cls-11{fill:#ad9330;}.cls-12{fill:#9c842a;}.cls-13{fill:#7e6c1e;}.cls-14{fill:#eef3f7;}.cls-15{fill:#1264ae;}</style></defs><path class="cls-1" d="M1178.1,538c0,120.05-97.14,217.14-217.25,217.09-119.73,0-216.84-97.22-216.85-217,0-120,97.24-217.17,217.28-217.11C1081,321.06,1178.09,418.23,1178.1,538Zm-10.22.1c0-113.93-92.56-206.8-206.27-206.93-114.25-.12-207.3,92.44-207.41,206.32C754.09,652,846.7,744.88,961,744.9,1075.16,744.93,1167.85,652.27,1167.88,538.13Z" transform="translate(-744 -321)"/><path class="cls-2" d="M1167.88,538.13c0,114.14-92.72,206.8-206.87,206.77C846.7,744.88,754.09,652,754.2,537.52c.11-113.88,93.16-206.44,207.41-206.32C1075.32,331.33,1167.91,424.2,1167.88,538.13Zm-90.93,115c9.31-7.36,16-16.87,22.17-26.84a26.51,26.51,0,0,0,1.78-2.36c22.2-36.79,29-76.32,21-118.45-16.42-86.23-103.39-145.42-189.58-129.06-94.87,18-153.66,109.43-130.14,202.62,4.66,18.48,12.05,35.84,23.57,51.24,3.51,6.64,8.66,12,13.47,17.69,1.23,2.78,6.84,3.93,2.91,8.75-1,1.28,1,2.9,2.39,3.86,2.71,1.86,5.44,3.7,8.32,5.67-1.93,1.58-3.94,1.58-5.78,2.08s-4.3.71-4.51,3.21,2.09,3.52,4.07,4.42a27,27,0,0,0,19.92,1.35c3.93-1.24,7-.35,10.62,1.68,52,29.49,104.91,31,158.79,5.22,11.4-5.45,22.76-5.61,33.16,2.8,1.28,1,2.58,1.65,4.08.88s1.72-2.28,1.69-3.87c-.07-3.52-1.5-6.68-2.78-9.88,2.67-1.08,6.24,1.58,7.74-2.18,1.26-3.15-1.42-4.86-3.1-6.79s-4.78-3.5-4.78-5.23,3-3.56,4.66-5.39C1076.89,654.22,1076.85,653.6,1077,653.12Z" transform="translate(-744 -321)"/><path class="cls-3" d="M825.73,630.27c-11.51-15.4-18.9-32.76-23.56-51.24-23.52-93.19,35.27-184.62,130.14-202.62,86.19-16.36,173.16,42.83,189.58,129.06,8,42.13,1.21,81.66-21,118.45a26.51,26.51,0,0,1-1.78,2.36c-3.26-1.3-6.39-3-9.9-3.56.29-2.26-1.32-1.73-2.56-1.74a13.36,13.36,0,0,1-7-1.88c-5-3.08-10.44-2.05-15.79-.94-3.33-.81-4-3-4.12-6.24-.18-5.69,1.94-11.31,1-16.85-1.41-8.64-.48-17.24-.6-25.85-.07-4.14,1.74-4,4.44-2.2a20,20,0,0,1,3.48,2.79c5,5.31,13.33,5.24,18,11.09a.54.54,0,0,0,.46.15c4.15-1.69,5.59,1.54,7.62,4s3.49,2.08,4.3-1.1a79.52,79.52,0,0,0,2-14.79c.84-13.6-.11-26.91-7.47-39-5.6-9.18-13.65-15.74-22.69-21.24-6.76-4.11-13.56-8.15-20.33-12.21-1.14-.91-2.27-1.85-3.43-2.73-7.25-5.48-8.36-8.92-4.79-17.37,2.8-6.63,6.06-13.07,9.12-19.6,2.64,2.32,5.81.08,8.63.95.56.17,1.7-.66,1.29-.91-3.36-2,3-3.9,0-5.76l3.51-1-4-1.75c1.39-1,3.09-.92,3.74-2-.58-1.92-4.93,1.27-3.49-3.09-2.84.76-.65-3.9-3.44-3.18l-.91-.73c0-.92,2-2.66-1-2.27-.78.1-1.9,1.9-2.11.64-.42-2.44-5.42-3.11-2-6.79-2,1.33-8,2.14-9.44,1.57V446c-3.47,1.36-8.09,1.19-8.07,6.89,0,1.4-2,2-3.5,2.14a12.28,12.28,0,0,0-5.63,1.86c5,2,9.57.35,13.77,1.9a.91.91,0,0,0,.62.29c1.8,1.64,1.92,3.46,1,5.67-2.11,4.85-4.1,9.76-7.68,13.77-4.42,4.94-6.23,10.78-6.26,17.31a17.64,17.64,0,0,1-.57,4.4c-3.34,12.58,1.44,24.24,3.59,36.79l2-2.92c5.16,8.58,10.9,16.72,18.42,23.42a4.42,4.42,0,0,1,1.45,4.43c-.78,5.26-1.39,10.55-2.33,15.77-1.11,6.09-1.47,6.16-7,3.68-8.59-3.9-16.46-9.19-25.16-12.94-2.45-1.06-4.61-3.32-3.67-7.21.61-2.57-.48-5.55-.8-8.35-1.68,6.24-2.31,12.62-8,16.77-.93-.61-.61-1.36-.26-2.15,8.07-18,10-36.85,8-56.28-.3-2.95.23-6.61-4.48-2.8-1.87,1.51-4.24-.15-6.08-.9s-1.41-2.74-.57-4.34.61-2.83-.65-4.4c-3-3.73-.68-10.37,3.87-11.87,6.69-2.2,8.34-9.42,3.27-14.37a14.25,14.25,0,0,0,3.42-1.88c1.81-1.76,3.58-3.78,1.64-6.52s-4.58-2.32-7.08-.92c-3.76,2.11-3.68,7.83.06,10.89,3.56,2.92,3.85,5.4.92,8.65-2.39,2.65-5.28,2.93-8,.92s-2.32-5.73,0-8.66c.91-1.14,3.12-2.73,1.09-4.86-1.15-1.2-.38-3.18.05-3.57,4.33-4,.08-7.6-1.07-10.59-1-2.6-4.28.32-6.53,1a6.59,6.59,0,0,1-2,.23c-3.56-.09-2.44,2.34-2.72,4.39-.21,1.57,3.46,1.86,1.06,3.31-2.16,1.32-3.09-.79-4.05-2.4-.81-1.34-2.07-2.26-3.75-1.75-1.4.42-3,.83-3.19,2.69-.15,1.44.75,2.16,2.08,2.25,1.15.08,2.77-.11,2.2,1.59-.37,1.08-.32,3.28-2.69,2.8s-3.8,1-4.89,3.06c-6.26-11-17-12.6-23.48-3.93-1.38,1.82-7.26,1.6-8.41-.41-.91-1.58-2.36-3.62,1.47-3.14A1.92,1.92,0,0,0,945.3,464c.32-1.43-.66-2.15-1.72-2.69-2.88-1.44-4.71-.26-6,2.42-.68,1.43-2,2-3.31,1.2-2.12-1.33.74-1.57.7-2.42-.08-1.57,1.76-3.75.1-4.52a27.61,27.61,0,0,0-9.79-2.59c-2.94-.16-1.61,3.45-2.84,5.12s-2.34,3.65.27,5.59a3.06,3.06,0,0,1,.41,4c-2.2,2.5.49,3.69,1.42,5,.54.77,2.12,1.22,2,2.44-.34,2.77-.63,5.83-3.86,6.94s-5.79-.18-7.54-3.15-1.52-5.33,1.68-7.1a6.71,6.71,0,0,0,1.9-1.58c2-2.42,1.6-7.25-.92-9-2.68-1.83-5.77-2.78-7.76.7-2.14,3.75.73,5.73,3.55,7.44.41.25.84.46,1.28.7-4.84,5.47-3.08,12.55,3.82,14.33,2.56.66,3.35,1.73,4,4.05.82,3.23,2.42,6.29-1.21,8.9-.45.32-.54,1.67-.28,2.34.72,1.85,2.19,4.25-.11,5.21-2,.84-4.47,3-7.21.21-1.85-1.86-3.41-.36-3.5,2-.19,5.14-1.35,10.16-1.46,15.35-.21,9.93,1.94,19.47,3.52,29.13-.18,3.1-1.19,6.12-.51,9.32a3.71,3.71,0,0,1-2.1,4.16q-13.63,7.21-27.3,14.38c-2.57,1.35-4,.36-4.43-2.39-.89-5.92-1.74-11.83-2.69-17.74-.24-1.48.26-2.23,1.41-3.26a84.3,84.3,0,0,0,17.39-22.28l1.77,2.18c2-2.27,1.06-5.12,1.7-7.62,4.61-18,5.12-35.47-7.27-51.11a12.51,12.51,0,0,1-2.47-4.82c-.69-3.24-3.46-6.19-1.57-9.84l1.29-.16c3.88-1.87,8.47.4,12.51-1.91-2.52-2.28-7.27-.32-8.06-4.09-1-4.72-4.11-5.47-7.89-5.86V440c-1.13-.77-1.48,1.63-2.87.76-2-1.26-7.31-.24-7.58,1.78-.71,5.23-3,.36-4.36.79.95,3.72-3,8.88-7.05,9.36,1.76,1.27,2,1.78.83,3.57-.61.94.32.72.41.73,3.24.48,1.26,3.72,2.68,5.27.34.37-.22,1.9,1.26,1.65,2.79-.47,5.79,1.13,8.43-.84.57,4.58,3.28,8.26,5.2,12.26C888.45,490.56,887.88,492,876,501c-7.23,4.33-14.53,8.56-21.67,13-16.62,10.41-25.91,25.15-26.16,45.09q0,4,0,7.94a86.69,86.69,0,0,0,1.92,16.3c.55,2.51,1.67,3.92,3.88,1.47s3.47-5.5,7.65-4.11c.6.2,1.81-1.26,2.66-2,1.36-1.23,2.64-2.61,4.51-3,4.59-.94,8.1-3.67,11.48-6.67,1.59-1.41,3.28-2.77,5.77-2.73.1,1.4.13,2.72.3,4,1.62,12.24-1.45,24.51.38,36.79.48,3.2,1.28,6.84-.77,10l-5.78,1a5.54,5.54,0,0,0-3.7.82l-2.63.27c-1.91.48-3.83.94-5.73,1.44C840.2,622.77,832.14,624.58,825.73,630.27Z" transform="translate(-744 -321)"/><path class="cls-4" d="M1089.21,622.72c3.52.58,6.65,2.26,9.91,3.56-6.15,10-12.86,19.48-22.17,26.84-4-.66-7.36,2-11.15,2-7.65.07-16.3,4.41-21.91-5-1-1.77-3.44-2.5-5.49-3.27a42.18,42.18,0,0,0-15.1-2.87c-22.68.11-45.12,3.25-67.62,5.49q-27.31,2.71-54.6,5.64c-2.85.3-4.16-.12-4.19-3.48,0-4.09-2.9-6.21-6.83-6.6a24.32,24.32,0,0,0-9.88.91c-5.53,1.77-11.13,3.4-16.55,5.46a16.3,16.3,0,0,1-11.57.17c-4.21-1.4-8.19-3.79-12.85-3.58-4.81-5.66-10-11.05-13.47-17.69,6.4-5.69,14.46-7.5,22.41-9.58,1.9-.5,3.82-1,5.73-1.44l3.49,1.82c-.67,1.18-3,1.09-2.42,2.52a2.89,2.89,0,0,0,3.84,1.21c2.66-1.24,5.45-.61,8.18-.88.76,4.15-.55,7.91-3,12,3.32-.74,5.83-1.63,8.39-1.77s5.16.46,7.74.74c-1.92-1.68-4.08-3.45-6.31-3.54-5-.2-5.13-3.06-4.64-6.7,3.66.06,7.32.15,11,.16,1,0,2.05.07,2.52-1.12.27-.69.07-1.69-.53-1.58-5.06,1-8.27-3.92-12.95-4,0-.51-.05-1-.08-1.54,8.49-1.1,17-.24,25.52-.41,2,0,2.61-1.14,2.2-3l10.28-1.17c.53,2.54,1.91,3.62,4.47,2.59a12.33,12.33,0,0,1,5.39-.63c4.83.25,9.65.49,14.48.57,2.27,0,4.64-.25,3.22-3.65l9.19-.63c1.3,3.56,4.78,2.09,6.64,1.88,3.47-.39,8.13,3.35,10.47-2.23h3.06c.32.08.93.21.92.23-1.27,6.41,2.47,4.91,6,3.87a7.85,7.85,0,0,1,2.47,0c5,.19,10,.42,15,.59,2.49.09,4.37-.5,3.55-3.66,3-.67,6,0,9.07.14l.46.14.47-.08,1.13.05c0,3,1,4.56,4.45,3.49,4.32-1.37,8.76-.44,13.16-.38,3.7,0,7.7,1.56,11-1.42l5.42.56c2.65.87,2.81,4.13,4.47,5.28,3.21,2.22,7.5.4,11.3,1.4,2.11.55,2.08-2.74,3.85-3.36,2,3.59.73,7.43.87,11.17-2.45.71-5.63.77-7.08,2.38-.87,1-7.09.92-2.49,4.93l-3.26,3.66c6.94-2.61,12.38-1.62,18.6,1-1.26-2.42-2.62-3.41-2.46-5,3.89,0,7.77.1,11.66.09,1,0,2.1-.31,2-1.61s-1.22-1.29-2.2-1.2c-3.49.32-6.63-.37-8.94-3.26-1.13-1.42-2.35-.43-3.55-.29l.08-5.91c1.62.69,3.06,2,5,1.3,4.57-1.65,9.17,0,13.74-.2C1082.31,623.6,1086,625.07,1089.21,622.72Zm-61.27-.7c-.28-.49-.51-1.13-1.17-.35l1.24.28c.66,4.16,2.67,6.5,7.32,6.11a13.08,13.08,0,0,1,5.76.31c2.24.79,3.41-1.92,3.82-3.61.24-1-1.81-2.25-3.3-1.79C1036.9,624.4,1032.45,623,1027.94,622Zm-65.85-2.15c-.38-.21-.75-.45-1.15-.63-.06,0-.23.21-.35.32L962,620c1.58,1.84,2.42,3.86.74,7.35,6.83-3.42,14.76,4.13,20-5.26C975.69,620.15,968.5,622.79,962.09,619.87ZM885,629l-.23-.31.28.26c.44.47,1.28,1,1.24,1.41-.12,1.1-3.4.4-1.74,2.61,1.12,1.5,2.95,1.29,4.58.71,3-1.08,6.13-.67,9.24-.44,3.61.26,7.24.47,10.86.63,1.33.05,3-.09,3-1.79-.08-2.09-2-.71-3-1.09-1.75-.65-4.49,1.2-5.22-2l.26-.27-.22.31c-2.32.37-3.74-1.71-6.11-2C893.22,626.38,889.47,629.58,885,629Zm53.37-1.43c-.38-.37-.79-.62-1.17-.06-.05.07.36.44.55.68-2.23,1.7-4.49-.64-6.74.06-.72,1.1,4.83,1.68.31,3.26a4.65,4.65,0,0,0,.43,2.62c.57,1,1.74.86,2.7.45,4.22-1.77,8.51-1.15,12.87-.65a99.27,99.27,0,0,0,11.7.49c1.42,0,3.39-.35,3.41-2.2,0-2.06-1.82-1.2-3-1.15-2,.09-3.82-1.1-5.86-.35-.65.24-1.15-.25-1.19-1.1s-2.56-3.61-3.27-3.36C945.66,627.53,941.92,626.7,938.39,627.59Zm53.37-2.06c3.11,3.47,6.34.24,9.47.43,6.07.37,12.14.71,18.22,1,1.58.07,3.93.39,4-1.8.08-2.45-2.21-.89-3.43-1.18-2.6-.62-5.37-.69-7.41-2.88-1.39-1.5-3.21-1.32-5.16-1.61-5.36-.82-10,2.68-16.45,1.26l5,2.93A4.85,4.85,0,0,0,991.76,625.53Zm12.39,3.6c-3.11.79-6.15,2.2-9.52,1.94,1.29,1.28-.86,2.09-.43,3.52s.79,2.51,2,2c6.73-2.57,13.57.43,20.31-.6,1.81-.28,4.85,1,4.81-1.77,0-2.59-2.63,0-4-.61-1-.48-2.83-.15-3.26-.83-2.23-3.48-5.45-3.6-9-3.23C1004.81,629.62,1004.5,629.31,1004.15,629.13Zm-55.62-5.46c2-1.28,4.16-.33,6.26-.59,1-.12,2.16-.16,2.13-1.52s-1.13-1-2.13-1.06c-2.35,0-4.83.55-6.56-2.25-.35-.56-2.75-1.72-5-1.82-4.2-.2-7.83,1.74-11.82,1.63-2.34-.07-1.47,2.15-1.82,3.16a1.88,1.88,0,0,0,2.47,2.47C937.56,621.74,943,622.34,948.53,623.67Zm-47.18-6.06c0,5.13,2.56,6.88,6.92,6.82,2,0,3.94-.55,6.16.24,1.84.66,3-2.09,3.41-3.58s-1.6-2.37-3-2A18.11,18.11,0,0,1,901.35,617.61Z" transform="translate(-744 -321)"/><path class="cls-5" d="M839.21,648c4.66-.21,8.64,2.18,12.85,3.58a16.3,16.3,0,0,0,11.57-.17c5.42-2.06,11-3.69,16.55-5.46a24.32,24.32,0,0,1,9.88-.91c3.93.39,6.79,2.51,6.83,6.6,0,3.36,1.34,3.78,4.19,3.48q27.28-2.93,54.6-5.64c22.5-2.24,44.94-5.38,67.62-5.49a42.18,42.18,0,0,1,15.1,2.87c2,.77,4.45,1.5,5.49,3.27,5.61,9.46,14.26,5.12,21.91,5,3.79,0,7.18-2.68,11.15-2-.1.48-.06,1.1-.34,1.42-1.63,1.83-4.66,3.6-4.66,5.39s3.18,3.38,4.78,5.23,4.36,3.64,3.1,6.79c-1.5,3.76-5.07,1.1-7.74,2.18,1.28,3.2,2.71,6.36,2.78,9.88,0,1.59-.19,3.09-1.69,3.87s-2.8.17-4.08-.88c-10.4-8.41-21.76-8.25-33.16-2.8C982.06,710,929.13,708.47,877.15,679c-3.58-2-6.69-2.92-10.62-1.68A27,27,0,0,1,846.61,676c-2-.9-4.29-1.78-4.07-4.42s2.62-2.68,4.51-3.21,3.85-.5,5.78-2.08c-2.88-2-5.61-3.81-8.32-5.67-1.4-1-3.44-2.58-2.39-3.86C846.05,651.89,840.44,650.74,839.21,648Zm45.87.29a12.86,12.86,0,0,0-6.14,1.48c-10.86,2.31-20.73,8.54-32.46,8.4l11.75,8c-2.85,4.25-7.89,3.64-11.44,6.15,5.66,3.28,11.39,3.6,17.22,2.44,4.71-.94,9.34-2.28,14-3.44,1,1.46,2.09,2.64,4,2.52a19.84,19.84,0,0,0,9,.94l8,0c17.05-.4,34-2.38,50.89-4.2l25-2.66c9-.07,18-1.08,27-2l12,.14.14,7c-.86,5.79.62,7.72,6.11,8a43.31,43.31,0,0,0,11.74-1.13,41.66,41.66,0,0,0,10-1.73c10.42-.78,20.79-1.32,29.73,6.78-1-7.38-1-7.38-6.94-13.85,4-.77,7.89-.3,12.38-.19-6.38-9.43-14.77-12.72-25.11-12.11-3.83.23-8.79,2-8.84-4.89,0-.32-.7-.64-1.07-1-1.8-2.41-4.54-3.14-7.21-3.94-10.24-3.08-20.6-2-31-.85-9.09.1-18.07,1.38-27.08,2.38L951,653.22l-49.9,5-6.65.47-.66-4.87C893.52,648.24,892.6,647.64,885.08,648.25Z" transform="translate(-744 -321)"/><path class="cls-6" d="M912.38,554c-1.58-9.66-3.73-19.2-3.52-29.13.11-5.19,1.27-10.21,1.46-15.35.09-2.35,1.65-3.85,3.5-2,2.74,2.75,5.21.63,7.21-.21,2.3-1,.83-3.36.11-5.21-.26-.67-.17-2,.28-2.34,3.63-2.61,2-5.67,1.21-8.9-.6-2.32-1.39-3.39-4-4.05-6.9-1.78-8.66-8.86-3.82-14.33-.44-.24-.87-.45-1.28-.7-2.82-1.71-5.69-3.69-3.55-7.44,2-3.48,5.08-2.53,7.76-.7,2.52,1.73,2.93,6.56.92,9a6.71,6.71,0,0,1-1.9,1.58c-3.2,1.77-3.41,4.15-1.68,7.1s4.21,4.3,7.54,3.15,3.52-4.17,3.86-6.94c.15-1.22-1.43-1.67-2-2.44-.93-1.32-3.62-2.51-1.42-5a3.06,3.06,0,0,0-.41-4c-2.61-1.94-1.4-4.06-.27-5.59s-.1-5.28,2.84-5.12a27.61,27.61,0,0,1,9.79,2.59c1.66.77-.18,2.95-.1,4.52,0,.85-2.82,1.09-.7,2.42,1.29.81,2.63.23,3.31-1.2,1.27-2.68,3.1-3.86,6-2.42,1.06.54,2,1.26,1.72,2.69a1.92,1.92,0,0,1-2.18,1.63c-3.83-.48-2.38,1.56-1.47,3.14,1.15,2,7,2.23,8.41.41,6.5-8.67,17.22-7.06,23.48,3.93,1.09-2.05,2.52-3.54,4.89-3.06s2.32-1.72,2.69-2.8c.57-1.7-1-1.51-2.2-1.59-1.33-.09-2.23-.81-2.08-2.25.19-1.86,1.79-2.27,3.19-2.69,1.68-.51,2.94.41,3.75,1.75,1,1.61,1.89,3.72,4.05,2.4,2.4-1.45-1.27-1.74-1.06-3.31.28-2.05-.84-4.48,2.72-4.39a6.59,6.59,0,0,0,2-.23c2.25-.65,5.53-3.57,6.53-1,1.15,3,5.4,6.59,1.07,10.59-.43.39-1.2,2.37-.05,3.57,2,2.13-.18,3.72-1.09,4.86-2.32,2.93-2.74,6.67,0,8.66s5.65,1.73,8-.92c2.93-3.25,2.64-5.73-.92-8.65-3.74-3.06-3.82-8.78-.06-10.89,2.5-1.4,5.1-1.88,7.08.92s.17,4.76-1.64,6.52a14.25,14.25,0,0,1-3.42,1.88c5.07,5,3.42,12.17-3.27,14.37-4.55,1.5-6.87,8.14-3.87,11.87,1.26,1.57,1.5,2.76.65,4.4s-1.22,3.61.57,4.34,4.21,2.41,6.08.9c4.71-3.81,4.18-.15,4.48,2.8,2,19.43.08,38.29-8,56.28-.35.79-.67,1.54.26,2.15l.09-.12c-3.26-.18-2,4.52-4.94,4.63.59-4.63,4.64-7.93,4.87-12.71,6.43-15.46,8.18-31.51,6.14-48.08-.31-2.48-1.91-2.15-3.48-2.51-12.29-2.8-24.32-6.38-35.48-12.39-2.12-1.15-5.08-1.56-5.61-4.71,2.72.43,4.42,3.06,7,3.49,3.14.53,6.48,7.35,9.57-.08.07-.16.62-.22.92-.17,3.66.57,1.78-1.36,1.23-2.7-.89-2.17-3.24-3.91-1.55-6.79a7,7,0,0,1,6.55-3.69c-2-2.74-4-4.4-5.44-6.7-2-3.21-9.25-2.6-10.15.92-1.63,6.46-5.55,10.07-12,11.69l3.76,4c-1.51,1-2.6-.59-3.93-.66l-2,1c-13.53,7.55-27.73,13.49-43,16.4-3.86.74-5,2.62-5.23,5.67-1,15.7-.06,31.15,6.53,45.78,0,2.08,1.24,3.74,2,5.57,1.63,4.15,5.1,7.3,6.22,11.71-3.87-1.84-4.4-6.22-6.9-9.09C915.76,565.13,914.41,559.43,912.38,554Zm47.68-64c-7.73-2.82-7.73-2.82-12.16-11.82-1.64-3.33-7.64-4.48-9.43-1.34-1.48,2.58-4,4.21-5.4,6.88,6.68,1.34,8.17,4.2,5.32,9.59-.93,1.75-3.37,4.05,1.58,3.86,1.95-.07.17,2.43.89,4C947.8,498.41,954.36,495.24,960.06,490ZM938,502.42c-3.24-2.69-8.61-3.68-4.27-8.63a15,15,0,0,0-1.51-1.15.92.92,0,0,0-1.5.6c-.78,3.34-3.83,5.35-4.87,8.55-.64,1.95-.54,2.7,1.92,3.09C931.4,505.46,934,503.48,938,502.42Zm45.9.07a80.39,80.39,0,0,0,8.41,2.6c1.33.25,3.36,0,4.12-.83,1-1.12-.2-2.84-.85-4.12-1.12-2.19-3.26-3.75-3.9-6.28-.29-1.13-1-1.53-2.25-1-1.48.65-.87,1.28-.27,2.2,1.66,2.57,1,4.25-2,5.11C986.28,500.43,985.58,501.26,983.9,502.49Zm20.52-35.63c1.46.75,3.05-1.24,4.1.59.43.75,1,1.43,1.76.3a1.65,1.65,0,0,0-.42-2.58C1007.53,463.74,1005.86,464.64,1004.42,466.86Z" transform="translate(-744 -321)"/><path class="cls-7" d="M1004,569.51l-.09.12c5.66-4.15,6.29-10.53,8-16.77.32,2.8,1.41,5.78.8,8.35-.94,3.89,1.22,6.15,3.67,7.21,8.7,3.75,16.57,9,25.16,12.94,5.49,2.48,5.85,2.41,7-3.68.94-5.22,1.55-10.51,2.33-15.77a4.42,4.42,0,0,0-1.45-4.43c-7.52-6.7-13.26-14.84-18.42-23.42-.81-3,4.68-3.38,2.92-6.95-2.49-5.06.62-4.79,4.06-4.07.08,10.07,2.68,19,11.54,25,.73.49,1.12,2.62,2.93.6,3.16-3.52,3.44-.24,3.95,2,1.87,5.34,4.48,10.14,10,12.5,4.4,1.87,8.9,3.49,13.33,5.27,4.09,1.64,8.11,3.46,12.25,5a3.74,3.74,0,0,0,4.94-1.82c.8-1.76,1-3.83,1.38-5.76,2.23-12.3-2.56-22.3-10.36-31.26-1-1.09-2.35-1.86-4-.79-1.06.69-2.08.37-3.2-.32-2.63-1.63-5.15-1.46-7.58,2.09.18-5.61-2.85-6.32-6.1-4.77-2.73,1.31-3.6,0-5.09-1.58s-2.42-7-6-1.62c-.4.62-.75-.16-1.1-.41-2.93-2.11-7.63-1.44-9.13-5.86-.13-.37-1.1-1.46-1.44-.63-1.69,4.16-4.14-.78-6,.62-2.48-.74-4.5-2.71-4-4.91.63-3,2.88,1,4.55-.4-.26-1.46-.89-3.08-.74-4.64.18-2-2.1-5.94,3.4-4.67.91.21,3-2.59,5.41-1.85-.87-3.44,3.92-4.66,3.17-8.06,6.77,4.06,13.57,8.1,20.33,12.21,9,5.5,17.09,12.06,22.69,21.24,7.36,12.06,8.31,25.37,7.47,39a79.52,79.52,0,0,1-2,14.79c-.81,3.18-2.35,3.47-4.3,1.1s-3.47-5.69-7.62-4a.54.54,0,0,1-.46-.15c-4.67-5.85-13-5.78-18-11.09a20,20,0,0,0-3.48-2.79c-2.7-1.83-4.51-1.94-4.44,2.2.12,8.61-.81,17.21.6,25.85.9,5.54-1.22,11.16-1,16.85.11,3.23.79,5.43,4.12,6.24a10.62,10.62,0,0,0-3.84,4.45c0,2,0,3.94-.08,5.91-.2,2.17-.44,4.35,1,6.27-.16,1.62,1.2,2.61,2.46,5-6.22-2.66-11.66-3.65-18.6-1l3.26-3.66c9.13-1.21,9.54-1.52,9.57-7.31-.14-3.74,1.17-7.58-.87-11.17,0-.56,0-1.12-.07-1.69.42-17.54.92-35.09-1.62-52.56-2.22,6.92-4.31,13.78-4.31,21,0,1.89,1.23,4.21-1.24,5.31-2.09.93-3.73-.75-5.42-1.74-8.42-5-16.9-9.8-25.24-14.87-4.26-2.6-8.25-5.76-13.49-2.27C1005.13,570,1004.49,569.64,1004,569.51Z" transform="translate(-744 -321)"/><path class="cls-7" d="M912.38,554c2,5.42,3.38,11.12,6.65,16-4.69-1.69-8.7-.73-12.94,2-8.17,5.31-16.74,10-25.14,15-1.45.87-2.93,1.66-4.62.83-1.24-.6-1.21-1.76-1.12-3,.6-7.56-1.87-14.56-3.59-21.7l-1.42.06-1,47.8c0,1.82,0,3.65,0,5.47,0,.52,0,1,.08,1.55,0,2.19,0,4.37,0,6.56-.49,3.64-.37,6.5,4.64,6.7,2.23.09,4.39,1.86,6.31,3.54-2.58-.28-5.18-.88-7.74-.74s-5.07,1-8.39,1.77c2.41-4,3.72-7.8,3-12,0-2.31.61-4.71-1-6.79,2-3.2,1.25-6.84.77-10-1.83-12.28,1.24-24.55-.38-36.79-.17-1.31-.2-2.63-.3-4-2.49,0-4.18,1.32-5.77,2.73-3.38,3-6.89,5.73-11.48,6.67-1.87.38-3.15,1.76-4.51,3-.85.78-2.06,2.24-2.66,2-4.18-1.39-5.56,1.79-7.65,4.11s-3.33,1-3.88-1.47a86.69,86.69,0,0,1-1.92-16.3l2-1.2V566a33.18,33.18,0,0,0,1.07,4.83c.94,2.52,2.9,3.54,5.48,2.54,7.15-2.79,14.25-5.73,21.4-8.51,6.09-2.36,10.21-6.44,11.85-12.86,1.49-3.4,1.8-3.74,3.85-1.93,1.6,1.41,2,.06,2.71-.43,8.08-5.64,11.35-13.55,10.74-23.22a11.3,11.3,0,0,0-.65-2.28c-2.07,2.61-5.78-2.69-7.64,1.68-1.53,3.58-6.51,1.51-8.43,4.71-4.14-6.28-4.35,1-6.34,1.92-1.08.5-1.44,1.81-3.29.92-3.67-1.76-6.73-1.11-7.06,4.17-2.94-3.68-12.16-3-15.08.7C834,544.34,830.52,551,830,559l-1.78.13c.26-19.94,9.55-34.68,26.17-45.09,7.14-4.47,14.44-8.7,21.67-13,1.17,1.72.89,3.83,3.09,5.61a44,44,0,0,0,5.38,3.71c6.17-2.87,3,2.47,3.36,4s-1.25,3.06-.53,4.85c1.51.62,3-2.41,4.29-.34,1.06,1.63-.81,2.61-1.64,3.75s-1.12,2.14.67,2.55a1.8,1.8,0,0,1,1.29,2.71c-1.93,3.59.32,5.89,2.21,8.37a84.3,84.3,0,0,1-17.39,22.28c-1.15,1-1.65,1.78-1.41,3.26.95,5.91,1.8,11.82,2.69,17.74.42,2.75,1.86,3.74,4.43,2.39q13.68-7.15,27.3-14.38a3.71,3.71,0,0,0,2.1-4.16C911.19,560.13,912.2,557.11,912.38,554Z" transform="translate(-744 -321)"/><path class="cls-8" d="M1037.92,523c-3.44-.72-6.55-1-4.06,4.07,1.76,3.57-3.73,3.9-2.92,6.95l-2,2.92c-2.15-12.55-6.93-24.21-3.59-36.79a17.64,17.64,0,0,0,.57-4.4c0-6.53,1.84-12.37,6.26-17.31,3.58-4,5.57-8.92,7.68-13.77,1-2.21.84-4-1-5.67,5.37.91,8.69-1.64,10.68-6.39,1.73,1.08,1,2.88,1.3,4.39-3.06,6.53-6.32,13-9.12,19.6-3.57,8.45-2.46,11.89,4.79,17.37,1.16.88,2.29,1.82,3.43,2.73.75,3.4-4,4.62-3.17,8.06-2.4-.74-4.5,2.06-5.41,1.85-5.5-1.27-3.22,2.71-3.4,4.67-.15,1.56.48,3.18.74,4.64-1.67,1.4-3.92-2.58-4.55.4-.46,2.2,1.56,4.17,4,4.91Z" transform="translate(-744 -321)"/><path class="cls-8" d="M894.15,536.2c-1.89-2.48-4.14-4.78-2.21-8.37a1.8,1.8,0,0,0-1.29-2.71c-1.79-.41-1.49-1.41-.67-2.55s2.7-2.12,1.64-3.75c-1.33-2.07-2.78,1-4.29.34-.72-1.79.93-3.38.53-4.85s2.81-6.88-3.36-4a44,44,0,0,1-5.38-3.71c-2.2-1.78-1.92-3.89-3.09-5.61,11.85-9,12.42-10.42,5.08-25.68-1.92-4-4.63-7.68-5.2-12.26.31-2-.66-4.21.89-6,1,6.37,3,8.06,9.51,8-1.89,3.65.88,6.6,1.57,9.84a12.51,12.51,0,0,0,2.47,4.82c12.39,15.64,11.88,33.11,7.27,51.11-.64,2.5.33,5.35-1.7,7.62Z" transform="translate(-744 -321)"/><path class="cls-4" d="M1050.9,457c-.27-1.51.43-3.31-1.3-4.38-.14-4.16-3-5.17-6.41-5.5l-1.46-1.2V432.71c1.44.57,7.49-.24,9.44-1.57-3.42,3.68,1.58,4.35,2,6.79.21,1.26,1.33-.54,2.11-.64,3-.39,1,1.35,1,2.27,0,.39-.09.78-.13,1.17l1-.44c2.79-.72.6,3.94,3.44,3.18-1.44,4.36,2.91,1.17,3.49,3.09-.65,1.12-2.35,1-3.74,2l4,1.75-3.51,1c3,1.86-3.36,3.74,0,5.76.41.25-.73,1.08-1.29.91C1056.71,457.12,1053.54,459.36,1050.9,457Z" transform="translate(-744 -321)"/><path class="cls-4" d="M876.8,457c-1.55,1.83-.58,4-.89,6-2.64,2-5.64.37-8.43.84-1.48.25-.92-1.28-1.26-1.65-1.42-1.55.56-4.79-2.68-5.27-.09,0-1,.21-.41-.73,1.17-1.79.93-2.3-.83-3.57,4-.48,8-5.64,7.05-9.36,1.36-.43,3.65,4.44,4.36-.79.27-2,5.58-3,7.58-1.78,1.39.87,1.74-1.53,2.87-.76v13c-1,.31-2.23-.2-3,.84A7.57,7.57,0,0,0,876.8,457Zm-9.12,3.65-.33-.22-.06.32Z" transform="translate(-744 -321)"/><path class="cls-9" d="M1060.07,622.61a10.62,10.62,0,0,1,3.84-4.45c5.35-1.11,10.74-2.14,15.79.94a13.36,13.36,0,0,0,7,1.88c1.24,0,2.85-.52,2.56,1.74-3.25,2.35-6.91.88-10.36,1-4.57.15-9.17-1.45-13.74.2C1063.13,624.63,1061.69,623.3,1060.07,622.61Z" transform="translate(-744 -321)"/><path class="cls-8" d="M1041.73,446l1.46,1.2c-1.18,4.06-5,7-4.89,11.59-4.2-1.55-8.82.11-13.77-1.9a12.28,12.28,0,0,1,5.63-1.86c1.55-.1,3.5-.74,3.5-2.14C1033.64,447.15,1038.26,447.32,1041.73,446Z" transform="translate(-744 -321)"/><path class="cls-5" d="M1038.3,458.75c-.09-4.59,3.71-7.53,4.89-11.59,3.43.33,6.27,1.34,6.41,5.5-2,4.74-5.31,7.29-10.68,6.38A.91.91,0,0,1,1038.3,458.75Z" transform="translate(-744 -321)"/><path class="cls-8" d="M881.13,453.81c.8-1,2-.53,3-.84,3.78.39,6.9,1.14,7.89,5.86.79,3.77,5.54,1.81,8.06,4.09-4,2.31-8.63,0-12.51,1.9C885.83,460.93,885.21,456.35,881.13,453.81Z" transform="translate(-744 -321)"/><path class="cls-5" d="M881.13,453.81c4.08,2.54,4.7,7.12,6.47,11l-1.29.17c-6.47.07-8.48-1.62-9.51-8A7.57,7.57,0,0,1,881.13,453.81Z" transform="translate(-744 -321)"/><path class="cls-9" d="M866,617.13c1.59,2.08,1,4.48,1,6.79-2.73.27-5.52-.36-8.18.88a2.89,2.89,0,0,1-3.84-1.21c-.61-1.43,1.75-1.34,2.42-2.52l-3.49-1.82,2.64-.27c1.18-.47,3.28,3.14,3.69-.82Z" transform="translate(-744 -321)"/><path class="cls-8" d="M830.18,565.84l-2,1.2q0-4,0-7.94L830,559Z" transform="translate(-744 -321)"/><path class="cls-4" d="M860.21,618.16c-.41,4-2.51.35-3.69.82A5.5,5.5,0,0,1,860.21,618.16Z" transform="translate(-744 -321)"/><path class="cls-3" d="M869.17,611l1-47.8,1.42-.06c1.72,7.14,4.19,14.14,3.59,21.7-.09,1.24-.12,2.4,1.12,3,1.69.83,3.17,0,4.62-.83,8.4-5,17-9.66,25.14-15,4.24-2.74,8.25-3.7,12.94-2,2.5,2.87,3,7.25,6.9,9.09V579c-.67,1.21.14,1.64,1.06,2l0,0c.72,2,1.45,3.91,4,4.06l0,0c-.29,1,0,1.38,1,1l0,0c-.31,1,0,1.39,1,1l0,0c-.34,1,0,1.39,1,1l0,0c-.35,1.05,0,1.36,1,1l0,0a5.06,5.06,0,0,0,5.05,4l-.06,0c3.29,5.08,8.93,6.64,13.9,9.12,7.35,3.69,16.46,1.46,22.25-5.12l-.05,0a6.23,6.23,0,0,0,6-4l0,0c.88.2,1.46.09,1-1l-.05.05A18.55,18.55,0,0,0,994.08,581l-.05.06c2.37-.34,3.35-1.72,3.05-4.06l0,.06c2-.12,2.34-1.38,2-3.05v.1c3-.11,1.68-4.81,4.94-4.63.48.13,1.12.52,1.39.34,5.24-3.49,9.23-.33,13.49,2.27,8.34,5.07,16.82,9.92,25.24,14.87,1.69,1,3.33,2.67,5.42,1.74,2.47-1.1,1.24-3.42,1.24-5.31,0-7.25,2.09-14.11,4.31-21,2.54,17.47,2,35,1.62,52.56a118.58,118.58,0,0,1-19.55-1.63l-5.41-.56c-.47-1.53-1.56-1.41-2.78-1.1a7.83,7.83,0,0,1-6.35-1.3c-5.15-3.44-15-3.16-19.54.71L1002,611,1001,611c-3-.15-6-.81-9.07-.14l.06.1c-2.39-1.44-5.06-.83-7.62-1.09-6.78-3.73-13.57-1.24-20.35,0H961a2.32,2.32,0,0,0-2.39-3.21c-5.45,1.79-10.73.5-16.22-.44a3.09,3.09,0,0,1,1.5,4l-9.19.63a7.73,7.73,0,0,1-7.15-.2c-7.2-4-14.58-3.69-20.41,1.32l-10.28,1.17c-2.15,0-4.31-.2-6.44,0-2.36.18-3-1.77-4.25-3l1.2-.82v.08a8.09,8.09,0,0,1-.86.12Z" transform="translate(-744 -321)"/><path class="cls-9" d="M938.39,627.58c3.53-.88,7.27-.05,10.78-1.3.71-.25,3.23,2.36,3.27,3.36s.54,1.34,1.19,1.1c2-.75,3.9.44,5.86.35,1.14-.05,3-.91,3,1.15,0,1.85-2,2.2-3.41,2.2a99.27,99.27,0,0,1-11.7-.49c-4.36-.5-8.65-1.12-12.87.65-1,.41-2.13.54-2.7-.45a4.65,4.65,0,0,1-.43-2.62c4.52-1.58-1-2.16-.31-3.26,2.25-.7,4.51,1.64,6.74-.06C938,628,938.19,627.8,938.39,627.58Z" transform="translate(-744 -321)"/><path class="cls-9" d="M991.76,625.53a4.85,4.85,0,0,1,4.28-1.89l-5-2.93c6.47,1.42,11.09-2.08,16.45-1.26,1.95.29,3.77.11,5.16,1.61,2,2.19,4.81,2.26,7.41,2.88,1.22.29,3.51-1.27,3.43,1.18-.07,2.19-2.42,1.87-4,1.8-6.08-.25-12.15-.59-18.22-1C998.1,625.77,994.87,629,991.76,625.53Z" transform="translate(-744 -321)"/><path class="cls-9" d="M869.17,611l17.33-1.54a8.09,8.09,0,0,0,.86-.12v-.08l-1.2.82c1.26,1.21,1.89,3.16,4.25,3,2.13-.17,4.29,0,6.44,0,.41,1.84-.25,2.95-2.2,3-8.51.17-17-.69-25.52.41C869.14,614.67,869.15,612.84,869.17,611Z" transform="translate(-744 -321)"/><path class="cls-9" d="M907.13,611.94c5.83-5,13.21-5.36,20.41-1.32a7.73,7.73,0,0,0,7.15.2c1.42,3.4-1,3.68-3.22,3.65-4.83-.08-9.65-.32-14.48-.57a12.33,12.33,0,0,0-5.39.63C909,615.56,907.66,614.48,907.13,611.94Z" transform="translate(-744 -321)"/><path class="cls-9" d="M1003.09,611.07c4.51-3.87,14.39-4.15,19.54-.71a7.83,7.83,0,0,0,6.35,1.3c1.22-.31,2.31-.43,2.78,1.1-3.36,3-7.36,1.46-11.06,1.42-4.4-.06-8.84-1-13.16.38C1004.14,615.63,1003.12,614.09,1003.09,611.07Z" transform="translate(-744 -321)"/><path class="cls-9" d="M964.05,609.83c6.78-1.24,13.57-3.73,20.36,0a5.32,5.32,0,0,0-.76.56c-.07.07,0,.43,0,.44,2.77.57,5.54,1.76,8.33.09l-.06-.1c.82,3.16-1.06,3.75-3.55,3.66-5-.17-10-.4-15-.59a7.85,7.85,0,0,0-2.47,0c-3.54,1-7.28,2.54-6-3.87C965,610,964.37,609.91,964.05,609.83Z" transform="translate(-744 -321)"/><path class="cls-9" d="M1004.15,629.13c.35.18.66.49.93.46,3.51-.37,6.73-.25,9,3.23.43.68,2.24.35,3.26.83,1.4.65,4-2,4,.61,0,2.75-3,1.49-4.81,1.77-6.74,1-13.58-2-20.31.6-1.22.47-1.62-.75-2-2s1.72-2.24.43-3.52C998,631.33,1001,629.92,1004.15,629.13Z" transform="translate(-744 -321)"/><path class="cls-9" d="M948.53,623.67c-5.54-1.33-11-1.93-16.48,0a1.88,1.88,0,0,1-2.47-2.47c.35-1-.52-3.23,1.82-3.16,4,.11,7.62-1.83,11.82-1.63,2.26.1,4.66,1.26,5,1.82,1.73,2.8,4.21,2.22,6.56,2.25,1,0,2.09-.45,2.13,1.06s-1.15,1.4-2.13,1.52C952.69,623.34,950.48,622.39,948.53,623.67Z" transform="translate(-744 -321)"/><path class="cls-9" d="M885,629c4.45.56,8.2-2.64,12.92-2,2.37.31,3.79,2.39,6.11,2l0,0c.73,3.23,3.47,1.38,5.22,2,1,.38,2.93-1,3,1.09.06,1.7-1.66,1.84-3,1.79-3.62-.16-7.25-.37-10.86-.63-3.11-.23-6.2-.64-9.24.44-1.63.58-3.46.79-4.58-.71-1.66-2.21,1.62-1.51,1.74-2.61,0-.42-.8-.94-1.24-1.41Z" transform="translate(-744 -321)"/><path class="cls-9" d="M962.1,619.87c6.4,2.92,13.59.28,20.63,2.26-5.28,9.39-13.21,1.84-20,5.26,1.68-3.49.84-5.51-.74-7.35Z" transform="translate(-744 -321)"/><path class="cls-9" d="M943.88,610.19a3.09,3.09,0,0,0-1.5-4c5.49.94,10.77,2.23,16.22.44a2.32,2.32,0,0,1,2.39,3.21c-2.34,5.58-7,1.84-10.47,2.23C948.66,612.28,945.18,613.75,943.88,610.19Z" transform="translate(-744 -321)"/><path class="cls-9" d="M901.35,617.61a18.11,18.11,0,0,0,13.45,1.47c1.44-.36,3.41.51,3,2s-1.57,4.24-3.41,3.58c-2.22-.79-4.13-.26-6.16-.24C903.91,624.49,901.32,622.74,901.35,617.61Z" transform="translate(-744 -321)"/><path class="cls-9" d="M1037.17,613.32a118.58,118.58,0,0,0,19.55,1.63c0,.57,0,1.13.07,1.69-1.77.62-1.74,3.91-3.85,3.36-3.8-1-8.09.82-11.3-1.4C1040,617.45,1039.82,614.19,1037.17,613.32Z" transform="translate(-744 -321)"/><path class="cls-9" d="M1027.94,622c4.51,1,9,2.38,13.67,1,1.49-.46,3.54.82,3.3,1.79-.41,1.69-1.58,4.4-3.82,3.61a13.08,13.08,0,0,0-5.76-.31c-4.65.39-6.66-1.95-7.32-6.11Z" transform="translate(-744 -321)"/><path class="cls-9" d="M1061,634.79c-1.42-1.92-1.18-4.1-1-6.27,1.2-.14,2.42-1.13,3.55.29,2.31,2.89,5.45,3.58,8.94,3.26,1-.09,2.15-.23,2.2,1.2s-1,1.61-2,1.61C1068.74,634.89,1064.86,634.83,1061,634.79Z" transform="translate(-744 -321)"/><path class="cls-9" d="M869.19,624.6c0-2.19,0-4.37,0-6.56,4.68.1,7.89,5,12.95,4,.6-.11.8.89.53,1.58-.47,1.19-1.57,1.12-2.52,1.12C876.51,624.75,872.85,624.66,869.19,624.6Z" transform="translate(-744 -321)"/><path class="cls-9" d="M1057.66,627.81c0,5.79-.44,6.1-9.57,7.31-4.6-4,1.62-4,2.49-4.93C1052,628.58,1055.21,628.52,1057.66,627.81Z" transform="translate(-744 -321)"/><path class="cls-9" d="M1028,622l-1.24-.28c.66-.78.89-.14,1.17.35Z" transform="translate(-744 -321)"/><path class="cls-9" d="M962,620l-1.36-.48c.12-.11.29-.34.35-.32.4.18.77.42,1.15.63Z" transform="translate(-744 -321)"/><polygon class="cls-9" points="141.07 307.97 140.79 307.71 141.02 308.01 141.07 307.97"/><path class="cls-9" d="M937.77,628.21c-.19-.24-.6-.61-.55-.68.38-.56.79-.31,1.17.05C938.19,627.8,938,628,937.77,628.21Z" transform="translate(-744 -321)"/><path class="cls-6" d="M1001,611l.93.06-.47.08Z" transform="translate(-744 -321)"/><polygon class="cls-9" points="160.05 308.02 160.27 307.71 160.01 307.98 160.05 308.02"/><path class="cls-10" d="M950,670.55c-16.93,1.82-33.84,3.8-50.89,4.2-2.35-4.64-.63-8.92,1.15-13.22a23.8,23.8,0,0,0,.86-3.27l49.9-5c.25.95.85,2,.69,2.85-.53,2.84-2.16,6.07,3.37,3.79,1.27-.52,2.87,1.49,3.1,3.19a1.39,1.39,0,0,1-2,1.42C949.9,662.31,950.2,666.7,950,670.55ZM948,665l.45.4-.39-.46c-.91-1.71-1.24-4-4.1-4,.1,1.8.19,3.55.3,5.59ZM914,668c1.78-.69,2.77,1.34,4.42,1.44-.92-3.45-.92-3.45-3-5.9-1.87,1-1.21,2.87-1.41,4.43-.25.36-.5.71-.72,1.07,0,0,.23.17.35.26Zm19-1c.35.24.7.48,1.07.7a2.27,2.27,0,0,0,.27-.34l-1.26-.46c0-.49-.08-1-.08-1.47,0-2.28-.09-4.59-3.23-4.27-2.2.24-1.73,2-1.32,3.44.46,1.62.48,4.18,3.26,1.81C931.85,666.28,932.55,666.79,933,667Zm-28.64-4.57c-.17,3.54-1,5.88,1.31,9.13.17-7.37,2.63-4,4.86-1.67.56-2.55.86-4.51-.65-7.48C908.35,668.19,906.67,665.7,904.35,662.43Z" transform="translate(-744 -321)"/><path class="cls-11" d="M1004,648.08c10.36-1.19,20.72-2.23,31,.85,2.67.8,5.41,1.53,7.21,3.94-1.81.77-1.82,2.38-2.27,4-1,3.71.29,8.07-3,11.15L1035,668c-1.06-1.43-2.64-.81-4-1-5.56-2.16-11.35-.46-17-1l-12-.14c.15-1.33-.43-2.86,1-3.86,1.5-.33.49-5.79,4-2,.55.89,1,2.12,2.36,1.48.67-.32.38-1-.17-1.45-.08-1.74-.16-3.48-.32-6.82-1.47,6.68-3.3,2.26-4.91,1.87Z" transform="translate(-744 -321)"/><path class="cls-12" d="M1036.86,668c3.29-3.08,2-7.44,3-11.15.45-1.64.46-3.25,2.27-4,.37.33,1.07.65,1.07,1,0,6.91,5,5.12,8.84,4.89,10.34-.61,18.73,2.68,25.11,12.11-4.49-.11-8.35-.58-12.38.19,6,6.47,6,6.47,6.94,13.85-8.94-8.1-19.31-7.56-29.73-6.78-.68-2.21,1.85-5.94-2.93-6.21C1039.37,670,1038,669.07,1036.86,668Z" transform="translate(-744 -321)"/><path class="cls-12" d="M878,671.33c-4.67,1.16-9.3,2.5-14,3.44-5.83,1.16-11.56.84-17.22-2.44,3.55-2.51,8.59-1.9,11.44-6.15l-11.75-8c11.73.14,21.6-6.09,32.46-8.4,1.84,4.11-2.73,4.82-3.9,7.34-1.08,1.74.13,3.07.8,4.48C877.33,664.64,878.44,667.81,878,671.33Z" transform="translate(-744 -321)"/><path class="cls-12" d="M1003,662c-1.42,1-.84,2.53-1,3.86-9,1-18,2-27,2,0-1.29.07-2.58.1-3.87.71-.14,1.51-.09,1.79-1,3.72-1.14,2.22-3.91,1.53-6s-1.61-4.24-1.5-6.58c9-1,18-2.28,27.08-2.38l0,7C999.6,656.81,1004,659.78,1003,662Zm-11.8-2.19-.89-1.09c-.29-.9-.82-2.56-1.56-1.92-1.54,1.34-.54,3.42-.64,5.93l1.74-3.55.9,1.1c.22.4.42,1.14.66,1.15.9.05.75-.73.75-1.33l.36-.57-.54.39Zm-6.51,1.45c.27.47.24,1.56,1,1.08s0-1.09-.48-1.52c-.53-1.66-.89-3.42-2.69-4.29C980.09,659.58,980.87,661.11,984.64,661.24Z" transform="translate(-744 -321)"/><path class="cls-13" d="M975.06,664c0,1.29-.06,2.58-.1,3.87l-25,2.66c.25-3.85-.05-8.24,6.16-6.08a1.39,1.39,0,0,0,2-1.42c-.23-1.7-1.83-3.71-3.1-3.19-5.53,2.28-3.9-1-3.37-3.79.16-.88-.44-1.9-.69-2.85l25.91-2.76c-.11,2.34.77,4.41,1.5,6.58s2.19,4.84-1.53,6l-3.73-.17c-.4-2.13.42-4.5-1.31-7.25-1.18,3.32-.73,5.48,1.11,7.42C973.39,663.88,974.26,663.88,975.06,664Zm-13-1c1.8-.69,2.79,1.31,4.77,1.56a13.16,13.16,0,0,0-3.18-6.14c-2.07,1.15-1.45,3-1.61,4.56-.26.36-.51.72-.74,1.1a4.31,4.31,0,0,0,.36.28Z" transform="translate(-744 -321)"/><path class="cls-12" d="M893.76,653.86l.66,4.87c-6.92,4.57-8.74,4.74-4,13.24a11.2,11.2,0,0,1,.69,2.82,19.84,19.84,0,0,1-9-.94c0-2.3.57-4.63.6-6.83,0-2.61,3-5.69-.6-8-.18-1.78-1.89-4.33,2-4.06C887.35,654.92,890.66,655.4,893.76,653.86Z" transform="translate(-744 -321)"/><path class="cls-10" d="M1031.94,679.83A43.31,43.31,0,0,1,1020.2,681c-5.49-.24-7-2.17-6.11-8,5.61-2.28,11.24-1.42,16.86-.06C1032.85,675,1031.58,677.54,1031.94,679.83Z" transform="translate(-744 -321)"/><path class="cls-13" d="M891.06,674.79a11.2,11.2,0,0,0-.69-2.82c-4.69-8.5-2.87-8.67,4-13.24l6.65-.47a23.8,23.8,0,0,1-.86,3.27c-1.78,4.3-3.5,8.58-1.15,13.22Zm3.23-11.27c-.16,2.31-.32,4.62-.56,8C896.22,668.42,896.56,666.11,894.29,663.52Z" transform="translate(-744 -321)"/><path class="cls-12" d="M1031,672.94c-5.62-1.36-11.25-2.22-16.86.06-.05-2.34-.09-4.68-.14-7,5.66.51,11.45-1.19,17,1C1031,669,1031,671,1031,672.94Z" transform="translate(-744 -321)"/><path class="cls-11" d="M882.05,659c3.58,2.36.63,5.44.6,8,0,2.2-.6,4.53-.6,6.83-1.94.12-3.07-1.06-4-2.52.42-3.52-.69-6.69-2.18-9.78-.67-1.41-1.88-2.74-.8-4.48C877.52,657.2,879.3,659.87,882.05,659Z" transform="translate(-744 -321)"/><path class="cls-13" d="M1031,672.94c0-2,0-4,0-6,1.37.19,3-.43,4,1-1.55,1.94-1.65,3.77.59,5.22,1.62,1,3,1.11,3.49-1.28,4.78.27,2.25,4,2.93,6.21a41.66,41.66,0,0,1-10,1.73C1031.58,677.54,1032.85,675,1031,672.94Z" transform="translate(-744 -321)"/><path class="cls-10" d="M893.76,653.86c-3.1,1.54-6.41,1.06-9.67,1l1-6.66C892.6,647.64,893.52,648.24,893.76,653.86Z" transform="translate(-744 -321)"/><path class="cls-13" d="M885.08,648.25l-1,6.66c-3.93-.27-2.22,2.28-2,4.06-2.75.9-4.53-1.77-7-1.9,1.17-2.52,5.74-3.23,3.9-7.34A12.86,12.86,0,0,1,885.08,648.25Z" transform="translate(-744 -321)"/><path class="cls-1" d="M925.93,579.14c-1.12-4.41-4.59-7.56-6.22-11.71-.72-1.83-1.93-3.49-2-5.57a216.72,216.72,0,0,0,24.9-33.54c6.56-11,12.85-22.06,16.78-34.31l2-1c1.54,3.67,3,7.38,4.65,11,9.8,21,21.87,40.49,37.82,57.44-.23,4.78-4.28,8.08-4.87,12.71V574c-1.54.44-2,1.58-2,3.05l0-.06a4.67,4.67,0,0,0-3.05,4.06l.05-.06A79.73,79.73,0,0,0,983,592.09l.05-.05c-.65,0-1.05.33-1,1l0,0a8.76,8.76,0,0,0-6,4l.05,0c-2.78.18-5,1.79-7.23,3.13-5.41,3.31-10.5,3.13-15.85-.07-4.24-2.54-8.71-4.72-13.07-7.06l.06,0a6.89,6.89,0,0,0-5.05-4l0,0a1,1,0,0,0-1-1l0,0a1,1,0,0,0-1-1l0,0a1,1,0,0,0-1-1l0,0a.93.93,0,0,0-1-1l0,0c-.49-2.19-1.49-3.87-4-4.06l0,0a1.34,1.34,0,0,0-1.06-2Zm28,4.1a20.11,20.11,0,0,0,13.54-.06,9.36,9.36,0,0,0,5.42-2.11c2.32-1.39,5-2.43,5.89-5.34,2.1-1.4,3.79-3.11,4.23-5.73a6.64,6.64,0,0,0,1.47-4c.35-1.35.7-2.71,1-4.07l.06-4-.81-3.79c.23-1.34-.52-2.4-1-3.53-.38-1.32-.59-2.72-1.82-3.61l-2.06-3a6.36,6.36,0,0,0-3-3c-9.89-8.36-22.43-8.38-32.09-.06a7,7,0,0,0-3.05,3c-.69,1-1.38,2.06-2.06,3.09a5,5,0,0,0-1.81,3.82c-1,.94-1,2.24-1.1,3.47a4.8,4.8,0,0,0-.65,3.85v3.65a6,6,0,0,0,.88,4.11c.45,1.47.89,2.94,1.34,4.42a14.15,14.15,0,0,0,4.37,5.88c1.67,2.13,3.4,4.19,6.09,5.09A9.84,9.84,0,0,0,954,583.24Z" transform="translate(-744 -321)"/><path class="cls-2" d="M1003.94,561.43c-16-16.95-28-36.45-37.82-57.44-1.68-3.6-3.11-7.31-4.65-11,1.33.07,2.42,1.62,3.93.66l.11.07c.53,3.15,3.49,3.56,5.61,4.71,11.16,6,23.19,9.59,35.48,12.39,1.57.36,3.17,0,3.48,2.51C1012.12,529.92,1010.37,546,1003.94,561.43Z" transform="translate(-744 -321)"/><path class="cls-2" d="M959.43,494c-3.93,12.25-10.22,23.36-16.78,34.31a216.72,216.72,0,0,1-24.9,33.54c-6.59-14.63-7.53-30.08-6.53-45.78.2-3.05,1.37-4.93,5.23-5.67C931.7,507.5,945.9,501.56,959.43,494Z" transform="translate(-744 -321)"/><path class="cls-5" d="M965.4,493.67l-3.76-4c6.45-1.62,10.37-5.23,12-11.69.9-3.52,8.18-4.13,10.15-.92,1.4,2.3,3.4,4,5.44,6.7a7,7,0,0,0-6.55,3.69c-1.69,2.88.66,4.62,1.55,6.79.55,1.34,2.43,3.27-1.23,2.7-.3-.05-.85,0-.92.17-3.09,7.43-6.43.61-9.57.08-2.58-.43-4.28-3.06-7-3.49Z" transform="translate(-744 -321)"/><path class="cls-5" d="M960.06,490c-5.7,5.21-12.26,8.38-19.2,11.2-.72-1.6,1.06-4.1-.89-4-5,.19-2.51-2.11-1.58-3.86,2.85-5.39,1.36-8.25-5.32-9.59,1.39-2.67,3.92-4.3,5.4-6.88,1.79-3.14,7.79-2,9.43,1.34C952.33,487.21,952.33,487.21,960.06,490Z" transform="translate(-744 -321)"/><path class="cls-14" d="M938,502.42c-4,1.06-6.6,3-10.23,2.46-2.46-.39-2.56-1.14-1.92-3.09,1-3.2,4.09-5.21,4.87-8.55a.92.92,0,0,1,1.5-.6,15,15,0,0,1,1.51,1.15C929.39,498.74,934.76,499.73,938,502.42Z" transform="translate(-744 -321)"/><path class="cls-14" d="M983.9,502.49c1.68-1.23,2.38-2.06,3.24-2.31,3-.86,3.68-2.54,2-5.11-.6-.92-1.21-1.55.27-2.2,1.21-.54,2-.14,2.25,1,.64,2.53,2.78,4.09,3.9,6.28.65,1.28,1.86,3,.85,4.12-.76.86-2.79,1.08-4.12.83A80.39,80.39,0,0,1,983.9,502.49Z" transform="translate(-744 -321)"/><path class="cls-14" d="M1004.42,466.86c1.44-2.22,3.11-3.12,5.44-1.69a1.65,1.65,0,0,1,.42,2.58c-.79,1.13-1.33.45-1.76-.3C1007.47,465.62,1005.88,467.61,1004.42,466.86Z" transform="translate(-744 -321)"/><path class="cls-5" d="M1037.92,523l.33-1.77c1.83-1.4,4.28,3.54,6-.62.34-.83,1.31.26,1.44.63,1.5,4.42,6.2,3.75,9.13,5.86.35.25.7,1,1.1.41,3.59-5.36,4.45,0,6,1.62s2.36,2.89,5.09,1.58c3.25-1.55,6.28-.84,6.1,4.77,2.43-3.55,5-3.72,7.58-2.09,1.12.69,2.14,1,3.2.32,1.66-1.07,3.06-.3,4,.79,7.8,9,12.59,19,10.36,31.26-1.65-1-.88-6.75-5.29-2.63-.9.85-2-.68-2.88-1.35-1.79-1.33-2.65-3.77-5.16-4.43-1.53,1.83.84,3.94-.68,5.83-4.1-1.32-7-4.66-10.79-6.63-1.43-.76-3.06-2.45-4.47-1.29-3,2.51-4.71.34-6.7-1.33-1.76-1.48-3.45-3.12-5.93-3.34-.51-2.28-.79-5.56-3.95-2-1.81,2-2.2-.11-2.93-.6C1040.6,542,1038,533.11,1037.92,523Z" transform="translate(-744 -321)"/><path class="cls-4" d="M1056.34,550.63c2.48.22,4.17,1.86,5.93,3.34,2,1.67,3.65,3.84,6.7,1.33,1.41-1.16,3,.53,4.47,1.29,3.75,2,6.69,5.31,10.79,6.63,1.52-1.89-.85-4,.68-5.83,2.51.66,3.37,3.1,5.16,4.43.89.67,2,2.2,2.88,1.35,4.41-4.12,3.64,1.6,5.29,2.63-.43,1.93-.58,4-1.38,5.76a3.74,3.74,0,0,1-4.94,1.82c-4.14-1.52-8.16-3.34-12.25-5-4.43-1.78-8.93-3.4-13.33-5.27C1060.82,560.77,1058.21,556,1056.34,550.63Z" transform="translate(-744 -321)"/><path class="cls-5" d="M830.18,565.84,830,559c.55-7.93,4-14.63,8.83-20.74,2.92-3.69,12.14-4.38,15.08-.7.33-5.28,3.39-5.93,7.06-4.17,1.85.89,2.21-.42,3.29-.92,2-.93,2.2-8.2,6.34-1.92,1.92-3.2,6.9-1.13,8.43-4.71,1.86-4.37,5.57.93,7.64-1.68a11.3,11.3,0,0,1,.65,2.28c.61,9.67-2.66,17.58-10.74,23.22-.71.49-1.11,1.84-2.71.43-2.05-1.81-2.36-1.47-3.85,1.93-2.87.36-4.54,2.59-6.64,4.18-1.14.86-2.23,2.34-3.83.89-2-1.83-3.66-.55-5.4.42-3.57,2-6.52,5-10.33,6.51-1.69-1.79,1.11-4-1.66-6.16-1.23,1.5-2.41,3.09-3.74,4.53-.75.8-2,2.33-2.8,1.53-3.87-4.15-3.57,1.58-5.4,2.1Z" transform="translate(-744 -321)"/><path class="cls-4" d="M830.19,566c1.83-.52,1.53-6.25,5.4-2.1.75.8,2-.73,2.8-1.53,1.33-1.44,2.51-3,3.74-4.53,2.77,2.11,0,4.37,1.66,6.16,3.81-1.48,6.76-4.51,10.33-6.51,1.74-1,3.39-2.25,5.4-.42,1.6,1.45,2.69,0,3.83-.89,2.1-1.59,3.77-3.82,6.64-4.18-1.64,6.42-5.76,10.5-11.85,12.86-7.15,2.78-14.25,5.72-21.4,8.51-2.58,1-4.54,0-5.48-2.54A33.18,33.18,0,0,1,830.19,566Z" transform="translate(-744 -321)"/><path class="cls-3" d="M1057.17,440.29l-1,.44c0-.39.09-.78.13-1.17Z" transform="translate(-744 -321)"/><polygon class="cls-3" points="123.68 139.65 123.29 139.75 123.34 139.43 123.68 139.65"/><path class="cls-6" d="M939.92,593.05c4.36,2.34,8.83,4.52,13.07,7.06,5.35,3.2,10.44,3.38,15.85.07,2.2-1.34,4.45-2.95,7.23-3.13-5.79,6.58-14.9,8.81-22.25,5.12C948.85,599.69,943.21,598.13,939.92,593.05Z" transform="translate(-744 -321)"/><path class="cls-6" d="M983,592.09A79.73,79.73,0,0,1,994.08,581,18.55,18.55,0,0,1,983,592.09Z" transform="translate(-744 -321)"/><path class="cls-6" d="M992,610.92c-2.79,1.67-5.56.48-8.33-.09,0,0-.11-.37,0-.44a5.32,5.32,0,0,1,.76-.56C987,610.09,989.63,609.48,992,610.92Z" transform="translate(-744 -321)"/><path class="cls-6" d="M934.93,589.05a6.89,6.89,0,0,1,5.05,4A5.06,5.06,0,0,1,934.93,589.05Z" transform="translate(-744 -321)"/><path class="cls-6" d="M976,597.08a8.76,8.76,0,0,1,6-4A6.23,6.23,0,0,1,976,597.08Z" transform="translate(-744 -321)"/><path class="cls-6" d="M927,581c2.51.19,3.51,1.87,4,4.06C928.42,584.93,927.69,583,927,581Z" transform="translate(-744 -321)"/><path class="cls-6" d="M994,581.09a4.67,4.67,0,0,1,3.05-4.06C997.38,579.37,996.4,580.75,994,581.09Z" transform="translate(-744 -321)"/><path class="cls-6" d="M997,577.09c0-1.47.49-2.61,2-3.05C999.38,575.71,999.06,577,997,577.09Z" transform="translate(-744 -321)"/><path class="cls-6" d="M925.93,579a1.34,1.34,0,0,1,1.06,2C926.07,580.67,925.26,580.24,925.93,579Z" transform="translate(-744 -321)"/><path class="cls-6" d="M982,593.07c0-.7.39-1,1-1C983.49,593.16,982.91,593.27,982,593.07Z" transform="translate(-744 -321)"/><path class="cls-6" d="M933.93,588a1,1,0,0,1,1,1C934,589.4,933.58,589.09,933.93,588Z" transform="translate(-744 -321)"/><path class="cls-6" d="M932.93,587a1,1,0,0,1,1,1C932.93,588.43,932.59,588.08,932.93,587Z" transform="translate(-744 -321)"/><path class="cls-6" d="M930.94,585a.93.93,0,0,1,1,1C930.94,586.42,930.65,586,930.94,585Z" transform="translate(-744 -321)"/><path class="cls-6" d="M931.93,586a1,1,0,0,1,1,1C931.93,587.43,931.62,587.05,931.93,586Z" transform="translate(-744 -321)"/><path class="cls-7" d="M904.35,662.43c2.32,3.27,4,5.76,5.52,0,1.51,3,1.21,4.93.65,7.48-2.23-2.31-4.69-5.7-4.86,1.67C903.4,668.31,904.18,666,904.35,662.43Z" transform="translate(-744 -321)"/><path class="cls-7" d="M933,667c-.44-.21-1.14-.72-1.29-.59-2.78,2.37-2.8-.19-3.26-1.81-.41-1.45-.88-3.2,1.32-3.44,3.14-.32,3.26,2,3.23,4.27,0,.49.06,1,.08,1.47Z" transform="translate(-744 -321)"/><path class="cls-7" d="M914,668c.2-1.56-.46-3.4,1.41-4.43,2.12,2.45,2.12,2.45,3,5.9-1.65-.1-2.64-2.13-4.42-1.44Z" transform="translate(-744 -321)"/><path class="cls-7" d="M948,665l-3.74,1.58c-.11-2-.2-3.79-.3-5.59,2.86,0,3.19,2.24,4.1,4Z" transform="translate(-744 -321)"/><path class="cls-7" d="M933.07,666.9l1.26.46a2.27,2.27,0,0,1-.27.34c-.37-.22-.72-.46-1.07-.7Z" transform="translate(-744 -321)"/><path class="cls-7" d="M914,668l-.4,1.3c-.12-.09-.36-.25-.35-.26.22-.36.47-.71.72-1.07Z" transform="translate(-744 -321)"/><path class="cls-7" d="M948,664.94l.39.46L948,665Z" transform="translate(-744 -321)"/><path class="cls-10" d="M1003,662c1.08-2.2-3.35-5.17,1-6.9,1.61.39,3.44,4.81,4.91-1.87.16,3.34.24,5.08.31,6.82l-2.18,0C1003.44,656.19,1004.45,661.65,1003,662Z" transform="translate(-744 -321)"/><path class="cls-10" d="M1039.05,671.89c-.44,2.39-1.87,2.32-3.49,1.28-2.24-1.45-2.14-3.28-.59-5.22l1.89.09C1038,669.07,1039.37,670,1039.05,671.89Z" transform="translate(-744 -321)"/><path class="cls-12" d="M1007,660l2.18,0c.56.44.85,1.13.18,1.45C1008,662.12,1007.52,660.89,1007,660Z" transform="translate(-744 -321)"/><path class="cls-7" d="M984.63,661.25c-3.76-.14-4.54-1.67-2.13-4.74,1.8.87,2.16,2.63,2.69,4.29Z" transform="translate(-744 -321)"/><path class="cls-7" d="M989.79,659.17l-1.73,3.54c.1-2.51-.9-4.59.64-5.93.74-.64,1.27,1,1.55,1.92Z" transform="translate(-744 -321)"/><path class="cls-7" d="M973.13,662.85l3.72.17c-.28.91-1.08.86-1.79,1-.8-.14-1.67-.14-2.14-1Z" transform="translate(-744 -321)"/><path class="cls-7" d="M985.19,660.8c.48.43,1.12,1.14.48,1.52s-.76-.61-1-1.07Z" transform="translate(-744 -321)"/><path class="cls-7" d="M992.12,660.08c0,.6.14,1.38-.76,1.33-.24,0-.44-.75-.66-1.15l.45-.47.78.11Z" transform="translate(-744 -321)"/><path class="cls-7" d="M990.7,660.26c-.3-.37-.6-.73-.91-1.09l.46-.47.9,1.09Z" transform="translate(-744 -321)"/><path class="cls-7" d="M991.93,659.9l.54-.39-.36.57Z" transform="translate(-744 -321)"/><path class="cls-7" d="M962,663c.16-1.58-.46-3.41,1.61-4.56a13.16,13.16,0,0,1,3.18,6.14c-2-.25-3-2.25-4.77-1.56Z" transform="translate(-744 -321)"/><path class="cls-7" d="M972.92,663c-1.84-1.94-2.29-4.1-1.11-7.42,1.73,2.75.91,5.12,1.31,7.25Z" transform="translate(-744 -321)"/><path class="cls-7" d="M962,663l-.4,1.36a4.31,4.31,0,0,1-.36-.28c.23-.38.48-.74.74-1.1Z" transform="translate(-744 -321)"/><path class="cls-10" d="M894.29,663.52c2.27,2.59,1.93,4.9-.56,8C894,668.14,894.13,665.83,894.29,663.52Z" transform="translate(-744 -321)"/><path class="cls-15" d="M984.81,554.11l.81,3.79a15.56,15.56,0,0,0-2.84.85c-6,3.16-11.94,3.41-18,.19-1.79-1-3.94-1.49-5.76-.49-7.73,4.26-15.28,2.78-22.84-.37a4.83,4.83,0,0,1,.65-3.86c7.26,3,14.42,4,21.9.31,3.14-1.58,6.52.14,9.52,1.52a11.36,11.36,0,0,0,10.46.05A43.06,43.06,0,0,1,984.81,554.11Z" transform="translate(-744 -321)"/><path class="cls-15" d="M937.07,565.84a6,6,0,0,1-.88-4.11c7.75,2.78,15.48,4,23.27.09a3.18,3.18,0,0,1,2.42-.1c7.89,3.72,15.77,2.73,23.68.18-.34,1.36-.69,2.72-1,4.07a7,7,0,0,0-2.42.32c-5.64,3.21-11.22,3.17-16.94.16-1.92-1-4.3-1.5-6.25-.48C951.55,569.83,944.33,568.84,937.07,565.84Z" transform="translate(-744 -321)"/><path class="cls-15" d="M982,547c1.23.89,1.44,2.29,1.82,3.61-6.54,3.36-13.1,4-19.77.29a5.9,5.9,0,0,0-5.73,0c-6.82,3.59-13.59,3-20.36-.12a5,5,0,0,1,1.81-3.82c5.27,2.78,10.5,3.58,16.09.58a10.34,10.34,0,0,1,10.11-.2C971.49,550.51,976.69,549.69,982,547Z" transform="translate(-744 -321)"/><path class="cls-15" d="M983.05,570c-.44,2.62-2.13,4.33-4.23,5.73-4.33,1.71-8.46.93-12.5-1-2.8-1.34-5.71-2-8.64-.66a23,23,0,0,1-14.9,2.07,14.15,14.15,0,0,1-4.37-5.88c6.7,2.46,13.33,3,20-.4a5.89,5.89,0,0,1,5.33-.09A20.81,20.81,0,0,0,983.05,570Z" transform="translate(-744 -321)"/><path class="cls-14" d="M985.56,561.9c-7.91,2.55-15.79,3.54-23.68-.18a3.18,3.18,0,0,0-2.42.1c-7.79,3.91-15.52,2.69-23.27-.09,0-1.22,0-2.43,0-3.65,7.56,3.15,15.11,4.63,22.84.37,1.82-1,4-.46,5.76.49,6.06,3.22,12,3,18-.19a15.56,15.56,0,0,1,2.84-.85Z" transform="translate(-744 -321)"/><path class="cls-14" d="M937.93,550.76c6.77,3.17,13.54,3.71,20.36.12a5.9,5.9,0,0,1,5.73,0c6.67,3.67,13.23,3.07,19.77-.29.5,1.13,1.25,2.19,1,3.53a43.06,43.06,0,0,0-6.1,2,11.36,11.36,0,0,1-10.46-.05c-3-1.38-6.38-3.1-9.52-1.52-7.48,3.74-14.64,2.67-21.9-.31C937,553,936.9,551.7,937.93,550.76Z" transform="translate(-744 -321)"/><path class="cls-14" d="M983.05,570a20.81,20.81,0,0,1-19.36-.23,5.89,5.89,0,0,0-5.33.09c-6.62,3.41-13.25,2.86-20,.4-.45-1.48-.89-3-1.34-4.42,7.26,3,14.48,4,21.84.13,2-1,4.33-.53,6.25.48,5.72,3,11.3,3,16.94-.16a7,7,0,0,1,2.42-.32A6.64,6.64,0,0,1,983.05,570Z" transform="translate(-744 -321)"/><path class="cls-14" d="M982,547c-5.28,2.72-10.48,3.54-16,.35a10.34,10.34,0,0,0-10.11.2c-5.59,3-10.82,2.2-16.09-.58.68-1,1.37-2.06,2.06-3.09,4.14,2.58,8.39,2.52,12.68.46s8.76-2.35,13.23,0a11.59,11.59,0,0,0,12.2-.37Z" transform="translate(-744 -321)"/><path class="cls-15" d="M979.91,543.94a11.59,11.59,0,0,1-12.2.37c-4.47-2.35-8.8-2.13-13.23,0s-8.54,2.12-12.68-.46a7,7,0,0,1,3.05-3c2.9,1.79,5.75.92,8.47-.35,5.26-2.47,10.37-2.63,15.63.05,2.5,1.27,5.24,2.11,8,.36A6.36,6.36,0,0,1,979.91,543.94Z" transform="translate(-744 -321)"/><path class="cls-14" d="M976.94,541c-2.75,1.75-5.49.91-8-.36-5.26-2.68-10.37-2.52-15.63-.05-2.72,1.27-5.57,2.14-8.47.35C954.51,532.58,967.05,532.6,976.94,541Z" transform="translate(-744 -321)"/><path class="cls-14" d="M942.78,576.14a23,23,0,0,0,14.9-2.07c2.93-1.38,5.84-.68,8.64.66,4,1.93,8.17,2.71,12.5,1-.94,2.91-3.57,3.95-5.89,5.34-8.06-4.85-16.07-4.66-24.06.16C946.18,580.33,944.45,578.27,942.78,576.14Z" transform="translate(-744 -321)"/><path class="cls-15" d="M948.87,581.23c8-4.82,16-5,24.06-.16a9.36,9.36,0,0,1-5.41,2.11c-4.53-3-9-1.95-13.55.06A9.84,9.84,0,0,1,948.87,581.23Z" transform="translate(-744 -321)"/><path class="cls-14" d="M954,583.24c4.51-2,9-3.11,13.55-.06A20.14,20.14,0,0,1,954,583.24Z" transform="translate(-744 -321)"/></svg>